<mxfile host="Electron" modified="2024-03-24T02:38:32.711Z" agent="Mozilla/5.0 (Windows NT 10.0; Win64; x64) AppleWebKit/537.36 (KHTML, like Gecko) draw.io/22.1.11 Chrome/114.0.5735.289 Electron/25.9.8 Safari/537.36" etag="KASF0c7iRfWYYITar54j" version="22.1.11" type="device">
  <diagram name="Page-1" id="10a91c8b-09ff-31b1-d368-03940ed4cc9e">
    <mxGraphModel dx="1573" dy="1177" grid="1" gridSize="10" guides="1" tooltips="1" connect="1" arrows="1" fold="1" page="1" pageScale="1" pageWidth="1100" pageHeight="850" background="none" math="0" shadow="0">
      <root>
        <mxCell id="0" />
        <mxCell id="1" parent="0" />
        <mxCell id="-J7-h678u2iASpLUjYB3-2" value="OR" style="ellipse;whiteSpace=wrap;html=1;aspect=fixed;fontSize=14;" vertex="1" parent="1">
          <mxGeometry x="310" y="140" width="80" height="80" as="geometry" />
        </mxCell>
        <mxCell id="-J7-h678u2iASpLUjYB3-4" value="OR" style="ellipse;whiteSpace=wrap;html=1;aspect=fixed;fontSize=14;" vertex="1" parent="1">
          <mxGeometry x="410" y="240" width="80" height="80" as="geometry" />
        </mxCell>
        <mxCell id="-J7-h678u2iASpLUjYB3-5" value="OR" style="ellipse;whiteSpace=wrap;html=1;aspect=fixed;fontSize=14;" vertex="1" parent="1">
          <mxGeometry x="510" y="340" width="80" height="80" as="geometry" />
        </mxCell>
        <mxCell id="-J7-h678u2iASpLUjYB3-6" value="word=&#39;你们&#39;" style="ellipse;whiteSpace=wrap;html=1;aspect=fixed;fontSize=14;" vertex="1" parent="1">
          <mxGeometry x="310" y="340" width="80" height="80" as="geometry" />
        </mxCell>
        <mxCell id="-J7-h678u2iASpLUjYB3-7" value="word=&#39;你&#39;" style="ellipse;whiteSpace=wrap;html=1;aspect=fixed;fontSize=14;" vertex="1" parent="1">
          <mxGeometry x="210" y="240" width="80" height="80" as="geometry" />
        </mxCell>
        <mxCell id="-J7-h678u2iASpLUjYB3-8" value="" style="endArrow=none;html=1;rounded=0;exitX=1;exitY=0;exitDx=0;exitDy=0;entryX=0;entryY=1;entryDx=0;entryDy=0;fontSize=14;" edge="1" parent="1" source="-J7-h678u2iASpLUjYB3-6" target="-J7-h678u2iASpLUjYB3-4">
          <mxGeometry width="50" height="50" relative="1" as="geometry">
            <mxPoint x="690" y="380" as="sourcePoint" />
            <mxPoint x="740" y="330" as="targetPoint" />
          </mxGeometry>
        </mxCell>
        <mxCell id="-J7-h678u2iASpLUjYB3-9" value="" style="endArrow=none;html=1;rounded=0;exitX=0;exitY=0;exitDx=0;exitDy=0;entryX=1;entryY=1;entryDx=0;entryDy=0;fontSize=14;" edge="1" parent="1" source="-J7-h678u2iASpLUjYB3-5" target="-J7-h678u2iASpLUjYB3-4">
          <mxGeometry width="50" height="50" relative="1" as="geometry">
            <mxPoint x="398" y="382" as="sourcePoint" />
            <mxPoint x="432" y="328" as="targetPoint" />
          </mxGeometry>
        </mxCell>
        <mxCell id="-J7-h678u2iASpLUjYB3-10" value="" style="endArrow=none;html=1;rounded=0;exitX=0;exitY=0;exitDx=0;exitDy=0;entryX=1;entryY=1;entryDx=0;entryDy=0;fontSize=14;" edge="1" parent="1" source="-J7-h678u2iASpLUjYB3-4" target="-J7-h678u2iASpLUjYB3-2">
          <mxGeometry width="50" height="50" relative="1" as="geometry">
            <mxPoint x="398" y="382" as="sourcePoint" />
            <mxPoint x="432" y="328" as="targetPoint" />
          </mxGeometry>
        </mxCell>
        <mxCell id="-J7-h678u2iASpLUjYB3-11" value="" style="endArrow=none;html=1;rounded=0;exitX=1;exitY=0;exitDx=0;exitDy=0;entryX=0;entryY=1;entryDx=0;entryDy=0;fontSize=14;" edge="1" parent="1" source="-J7-h678u2iASpLUjYB3-7" target="-J7-h678u2iASpLUjYB3-2">
          <mxGeometry width="50" height="50" relative="1" as="geometry">
            <mxPoint x="488" y="272" as="sourcePoint" />
            <mxPoint x="542" y="208" as="targetPoint" />
          </mxGeometry>
        </mxCell>
        <mxCell id="-J7-h678u2iASpLUjYB3-14" value="word=&#39;我&#39;" style="ellipse;whiteSpace=wrap;html=1;aspect=fixed;fontSize=14;" vertex="1" parent="1">
          <mxGeometry x="410" y="440" width="80" height="80" as="geometry" />
        </mxCell>
        <mxCell id="-J7-h678u2iASpLUjYB3-15" value="" style="endArrow=none;html=1;rounded=0;exitX=1;exitY=0;exitDx=0;exitDy=0;entryX=0;entryY=1;entryDx=0;entryDy=0;fontSize=14;" edge="1" parent="1" source="-J7-h678u2iASpLUjYB3-14" target="-J7-h678u2iASpLUjYB3-5">
          <mxGeometry width="50" height="50" relative="1" as="geometry">
            <mxPoint x="780" y="502" as="sourcePoint" />
            <mxPoint x="512" y="440" as="targetPoint" />
          </mxGeometry>
        </mxCell>
        <mxCell id="-J7-h678u2iASpLUjYB3-16" value="word=&#39;我们&#39;" style="ellipse;whiteSpace=wrap;html=1;aspect=fixed;fontSize=14;" vertex="1" parent="1">
          <mxGeometry x="610" y="440" width="80" height="80" as="geometry" />
        </mxCell>
        <mxCell id="-J7-h678u2iASpLUjYB3-17" value="" style="endArrow=none;html=1;rounded=0;exitX=0;exitY=0;exitDx=0;exitDy=0;entryX=1;entryY=1;entryDx=0;entryDy=0;fontSize=14;" edge="1" parent="1" source="-J7-h678u2iASpLUjYB3-16" target="-J7-h678u2iASpLUjYB3-5">
          <mxGeometry width="50" height="50" relative="1" as="geometry">
            <mxPoint x="970" y="512" as="sourcePoint" />
            <mxPoint x="702" y="450" as="targetPoint" />
          </mxGeometry>
        </mxCell>
      </root>
    </mxGraphModel>
  </diagram>
</mxfile>
